<?xml version="1.0" ?><!DOCTYPE svg  PUBLIC '-//W3C//DTD SVG 1.1//EN'  'http://www.w3.org/Graphics/SVG/1.1/DTD/svg11.dtd'><svg enable-background="new 0 0 96 96" height="96px" id="power" version="1.1" viewBox="0 0 96 96" width="96px" xml:space="preserve" xmlns="http://www.w3.org/2000/svg" xmlns:xlink="http://www.w3.org/1999/xlink"><path fill="#fff" d="M48,91.98c-10.243,0-20.486-3.898-28.284-11.696c-15.596-15.596-15.596-40.973,0-56.568c1.562-1.562,4.095-1.562,5.657,0  c1.562,1.562,1.562,4.095,0,5.657c-12.477,12.477-12.477,32.778,0,45.255c12.476,12.476,32.778,12.476,45.255,0  c12.476-12.478,12.476-32.779,0-45.256c-1.562-1.562-1.562-4.095,0-5.657c1.562-1.562,4.096-1.562,5.656,0  c15.596,15.596,15.596,40.973,0,56.568C68.486,88.082,58.243,91.98,48,91.98z"/><path fill="#fff" d="M52,48c0,2.209-1.791,4-4,4l0,0c-2.209,0-4-1.791-4-4V8c0-2.209,1.791-4,4-4l0,0c2.209,0,4,1.791,4,4V48z"/></svg>
